PathFileType	4	(X/Y/Z)	C:\Users\ebm\Documents\Erivelton\Erivelton2\wc1.trc
DataRate	CameraRate	NumFrames	NumMarkers	Units	OrigDataRate	OrigDataStartFrame	OrigNumFrames
150.00	150.00	       11	28	mm	150.00	188	       750
Frame#	Time	IJ			PX			C7			T8			RAC			RAS			RPS			RAI			RPI			RLE			RME			RRS			RUS			R3M			R5M			LAC			LAS			LPS			LAI			LPI			LLE			LME			LRS			LUS			L3M			L5M			RW			LW			V_mid_elbow_r			V_mid_elbow_l			V_mid_wrist_r			V_mid_wrist_l			V_mid_trunk_low			V_mid_trunk_upp			
		X1	Y1	Z1	X2	Y2	Z2	X3	Y3	Z3	X4	Y4	Z4	X5	Y5	Z5	X6	Y6	Z6	X7	Y7	Z7	X8	Y8	Z8	X9	Y9	Z9	X10	Y10	Z10	X11	Y11	Z11	X12	Y12	Z12	X13	Y13	Z13	X14	Y14	Z14	X15	Y15	Z15	X16	Y16	Z16	X17	Y17	Z17	X18	Y18	Z18	X19	Y19	Z19	X20	Y20	Z20	X21	Y21	Z21	X22	Y22	Z22	X23	Y23	Z23	X24	Y24	Z24	X25	Y25	Z25	X26	Y26	Z26	X27	Y27	Z27	X28	Y28	Z28	

188	1.247	2459.72119	1029.14563	-200.91937	2482.40820	864.83826	-185.60028	2324.26636	1119.23022	-207.16945	2258.40356	965.12671	-195.98943	2379.59082	1064.85632	4.06202	2411.23706	872.14142	65.79515	2361.59937	872.40350	66.13519	2420.46021	797.76904	87.60509	2367.11133	794.45441	88.64544	2381.00366	733.75879	98.85437	2370.74976	711.20697	25.64231	2554.22217	528.93695	147.76813	2497.29443	514.66364	160.17239	2560.62183	440.52823	170.71321	2523.66333	430.94492	160.28519	2365.88916	1057.02246	-388.85406	2369.22046	884.54303	-458.87350	2324.71094	873.85425	-442.58072	2387.81982	807.53326	-477.07806	2338.16821	792.78387	-458.80237	2380.55322	722.91345	-489.50995	2357.46216	700.87915	-420.02481	2548.47437	517.97144	-509.52164	2495.95923	487.92017	-532.80804	2561.37305	425.78537	-531.74493	2521.61328	422.06186	-530.85583	2440.48462	299.38278	131.41765	2428.38062	297.68112	-497.30298	
189	1.253	2459.71802	1029.15491	-200.92436	2482.38477	864.84082	-185.59544	2324.26392	1119.23218	-207.19522	2258.38574	965.12030	-195.99892	2379.58813	1064.85876	4.06575	2411.22705	872.14178	65.79353	2361.59448	872.40674	66.13310	2420.44116	797.76178	87.60926	2367.10522	794.44763	88.64125	2380.99463	733.75464	98.84480	2370.74902	711.20264	25.64190	2554.21753	528.93567	147.77039	2497.28833	514.66370	160.17613	2560.61401	440.54196	170.71675	2523.68311	430.93436	160.27390	2365.87061	1056.99744	-388.82581	2369.20508	884.54956	-458.89069	2324.71460	873.85614	-442.57339	2387.80542	807.54224	-477.07935	2338.16040	792.78040	-458.81866	2380.53564	722.94067	-489.53809	2357.47754	700.87933	-420.01993	2548.46997	517.91986	-509.50198	2495.95435	487.91925	-532.81232	2561.37451	425.79858	-531.74799	2521.61328	422.06607	-530.86511	2440.47437	299.37967	131.41563	2428.37183	297.68094	-497.30374	
190	1.260	2459.70630	1029.15125	-200.91502	2482.39233	864.84497	-185.59027	2324.25586	1119.22363	-207.17430	2258.38428	965.12610	-196.01073	2379.57129	1064.85889	4.06208	2411.22168	872.14197	65.79705	2361.59277	872.39423	66.13338	2420.43701	797.75891	87.60555	2367.10132	794.45508	88.64253	2380.99365	733.75500	98.85777	2370.73633	711.19739	25.65595	2554.22314	528.94971	147.76636	2497.29004	514.66620	160.17796	2560.62183	440.54068	170.71541	2523.68604	430.93607	160.27074	2365.86304	1057.00305	-388.83026	2369.19971	884.55060	-458.87808	2324.71240	873.85431	-442.57272	2387.79736	807.53790	-477.08066	2338.15210	792.78113	-458.80408	2380.53320	722.94928	-489.53183	2357.48071	700.87793	-420.02905	2548.47778	517.99323	-509.52301	2495.96289	487.92862	-532.81104	2561.37622	425.80225	-531.76147	2521.61841	422.07199	-530.86047	2440.47290	299.37512	131.41486	2428.36694	297.67538	-497.29507	
191	1.267	2459.70630	1029.14978	-200.91702	2482.06885	864.36737	-185.80719	2324.24902	1119.23230	-207.17471	2258.38452	965.12274	-196.00574	2379.56030	1064.85242	4.06387	2411.23218	872.14319	65.79424	2361.58740	872.40167	66.13720	2420.43115	797.75623	87.60807	2367.08789	794.44666	88.64118	2380.99170	733.75543	98.84531	2370.72583	711.19043	25.64630	2554.23022	528.94629	147.76369	2497.30249	514.67224	160.16675	2560.63623	440.54111	170.70160	2523.69849	430.93793	160.26079	2365.85547	1057.00476	-388.82047	2369.19800	884.55231	-458.87610	2324.70508	873.86169	-442.57816	2387.80396	807.54651	-477.08231	2338.15942	792.78912	-458.81149	2380.53784	722.94543	-489.53394	2357.46704	700.88434	-420.03732	2548.46704	517.99591	-509.51901	2495.95264	487.93600	-532.81165	2561.34814	425.89044	-531.74323	2521.61816	422.07675	-530.86584	2440.46948	299.37286	131.40361	2428.35205	297.68439	-497.30377	
192	1.273	2459.69067	1029.15454	-200.91168	2482.40894	864.83533	-185.60857	2324.24634	1119.22949	-207.18323	2258.38110	965.11707	-196.02377	2379.56323	1064.85510	4.05989	2411.22388	872.13989	65.78873	2361.58252	872.40454	66.13427	2420.43042	797.75879	87.60337	2367.07983	794.45087	88.63640	2380.99194	733.75140	98.85526	2370.72583	711.18915	25.64313	2554.23169	528.96057	147.76434	2497.30981	514.67157	160.16679	2560.64941	440.56055	170.70790	2523.71191	430.94040	160.25725	2365.85034	1056.99377	-388.82068	2369.18481	884.55853	-458.88364	2324.69751	873.86890	-442.58145	2387.78833	807.55035	-477.08752	2338.13916	792.79077	-458.80441	2380.52734	722.94537	-489.53531	2357.43726	700.89044	-420.04279	2548.47290	518.00256	-509.52881	2495.94751	487.94431	-532.82312	2561.38086	425.81393	-531.76184	2521.61841	422.08151	-530.87244	2440.46460	299.37909	131.40627	2428.34229	297.68570	-497.30762	
193	1.280	2459.68994	1029.15723	-200.91818	2482.38721	864.82935	-185.60770	2324.23999	1119.23816	-207.17560	2258.37280	965.12939	-196.02271	2379.54883	1064.84521	4.05887	2411.20142	872.14044	65.79285	2361.57080	872.39410	66.13216	2420.42969	797.75714	87.60036	2367.07446	794.44531	88.64012	2380.97412	733.75073	98.84252	2370.72217	711.19073	25.62879	2554.23730	528.97205	147.76117	2497.31226	514.67328	160.15544	2560.65625	440.55869	170.69270	2523.72241	430.95108	160.24722	2365.84058	1057.00281	-388.82419	2369.17505	884.55487	-458.89398	2324.68774	873.86127	-442.58502	2387.78516	807.55157	-477.09000	2338.14063	792.79382	-458.82568	2380.51636	722.94379	-489.54904	2357.46362	700.89746	-420.05032	2548.48193	517.95099	-509.51144	2495.94165	487.94681	-532.84692	2561.37354	425.82587	-531.76910	2521.63013	422.08066	-530.87030	2440.45874	299.37720	131.39851	2428.34253	297.68631	-497.31412	
194	1.287	2459.68677	1029.14539	-200.90756	2482.40381	864.84064	-185.60185	2324.24805	1119.22217	-207.17513	2258.37964	965.11774	-196.01625	2379.54321	1064.84827	4.06452	2411.21069	872.14435	65.79301	2361.56372	872.39343	66.13076	2420.41772	797.75488	87.60586	2367.07300	794.44855	88.63542	2380.97217	733.74365	98.84921	2370.72314	711.18646	25.63247	2554.24585	528.97522	147.76508	2497.32861	514.67963	160.15894	2560.67334	440.56253	170.68585	2523.74536	430.95343	160.24358	2365.84180	1057.00745	-388.82452	2369.17847	884.56073	-458.89740	2324.68140	873.86633	-442.58868	2387.78003	807.55066	-477.08469	2338.13940	792.78967	-458.81247	2380.52393	722.94684	-489.54614	2357.44604	700.89215	-420.04489	2548.47217	517.94434	-509.50830	2495.95264	487.94489	-532.84393	2561.35791	425.90152	-531.74750	2521.62476	422.09375	-530.87830	2440.45630	299.37979	131.40082	2428.34229	297.67960	-497.31061	
195	1.293	2459.69482	1029.15015	-200.91229	2482.38818	864.82306	-185.61667	2324.23950	1119.21985	-207.16695	2258.38110	965.11639	-196.02666	2379.53955	1064.83887	4.06557	2411.19946	872.11597	65.79890	2361.56421	872.38800	66.12763	2420.41553	797.74805	87.61192	2367.06226	794.43945	88.64056	2380.97339	733.74060	98.83434	2370.71582	711.17834	25.64803	2554.26343	528.98340	147.73882	2497.35474	514.67981	160.15021	2560.69531	440.56772	170.67850	2523.76221	430.94290	160.23787	2365.83057	1056.99255	-388.80606	2369.17456	884.56378	-458.89487	2324.68481	873.86694	-442.59537	2387.77148	807.55463	-477.09085	2338.12939	792.79218	-458.81940	2380.52002	722.93903	-489.54129	2357.43262	700.90143	-420.05817	2548.48218	517.95282	-509.50613	2495.94775	487.95627	-532.83716	2561.38745	425.82916	-531.76202	2521.63477	422.09271	-530.87994	2440.45947	299.37677	131.39627	2428.33911	297.68066	-497.31229	
196	1.300	2459.69824	1029.14368	-200.90935	2482.40381	864.83582	-185.61028	2324.23682	1119.22412	-207.16580	2258.37842	965.11749	-196.00562	2379.52563	1064.83301	4.06193	2411.18799	872.13019	65.78975	2361.55322	872.37988	66.12346	2420.40234	797.74200	87.61762	2367.05493	794.43127	88.64228	2380.97241	733.73920	98.85186	2370.71240	711.17767	25.64724	2554.27319	528.97845	147.73466	2497.35840	514.69104	160.13950	2560.70605	440.55603	170.65453	2523.78101	430.95123	160.24063	2365.83838	1057.02820	-388.83618	2369.16968	884.56476	-458.89899	2324.68188	873.86542	-442.59656	2387.77271	807.55402	-477.09488	2338.13525	792.78900	-458.83688	2380.51367	722.92877	-489.53650	2357.42017	700.89038	-420.05490	2548.47681	517.95544	-509.51077	2495.95703	487.95755	-532.84174	2561.38379	425.82605	-531.76263	2521.62354	422.09106	-530.87335	2440.46191	299.37271	131.38802	2428.32642	297.69080	-497.31845	
197	1.307	2459.69507	1029.13196	-200.90356	2482.39258	864.82587	-185.61848	2324.23608	1119.22217	-207.16345	2258.38599	965.11560	-196.01076	2379.53857	1064.82935	4.06559	2411.19482	872.12451	65.79372	2361.55078	872.38391	66.13055	2420.39624	797.73773	87.61629	2367.04395	794.42261	88.65115	2380.96631	733.72443	98.84976	2370.71387	711.16370	25.63700	2554.28516	528.98767	147.72632	2497.37622	514.68256	160.14082	2560.72925	440.57269	170.65414	2523.79199	430.94568	160.22894	2365.83179	1057.00537	-388.80844	2369.17871	884.56146	-458.89267	2324.67529	873.86517	-442.59680	2387.76685	807.55420	-477.09134	2338.13208	792.79480	-458.83719	2380.51904	722.94623	-489.55148	2357.42944	700.89929	-420.05505	2548.47510	517.94629	-509.50085	2495.95361	487.95050	-532.83472	2561.38574	425.83252	-531.76575	2521.62598	422.09140	-530.86707	2440.46143	299.37491	131.39537	2428.33594	297.68301	-497.31473	
198	1.313	2459.70630	1029.11694	-200.89803	2482.40454	864.83386	-185.61563	2324.23828	1119.21411	-207.15823	2258.36792	965.11005	-195.99974	2379.52588	1064.80957	4.07164	2411.19360	872.11810	65.79811	2361.54565	872.36401	66.12588	2420.38354	797.72253	87.62428	2367.03491	794.41510	88.64827	2380.96729	733.71515	98.85122	2370.71582	711.14380	25.63246	2554.29443	528.98438	147.72409	2497.37964	514.67487	160.13950	2560.74805	440.57193	170.64777	2523.78540	430.95239	160.24077	2365.83496	1056.99829	-388.82578	2369.17505	884.55621	-458.88995	2324.67261	873.86298	-442.61060	2387.77490	807.55115	-477.09473	2338.12256	792.78400	-458.83713	2380.51050	722.93109	-489.54797	2357.40967	700.87628	-420.05090	2548.46924	517.95105	-509.48956	2495.94873	487.95200	-532.82861	2561.38940	425.82733	-531.75940	2521.62549	422.09518	-530.87897	2440.45410	299.37747	131.39583	2428.32373	297.67975	-497.31384	
